<svg xmlns="http://www.w3.org/2000/svg" width="107.74" height="104.64" viewBox="0 0 107.74 104.64">
  <defs>
    <style>
      .cls-1 {
        fill: #f5ff12;
      }

      .cls-2, .cls-3 {
        fill: #fff;
      }

      .cls-2 {
        stroke: #f5ff12;
        stroke-miterlimit: 1;
        stroke-width: 10.27px;
      }

      .cls-3, .cls-5 {
        stroke: #6798e9;
      }

      .cls-3, .cls-4 {
        stroke-linecap: round;
        stroke-linejoin: round;
      }

      .cls-3 {
        stroke-width: 7.3px;
      }

      .cls-4 {
        fill: #386195;
        stroke: #386195;
        stroke-width: 6.15px;
      }

      .cls-5 {
        fill: #6798e9;
        stroke-miterlimit: 3.2;
        stroke-width: 4px;
      }
    </style>
  </defs>
  <g id="Layer_2" data-name="Layer 2">
    <g id="Layer_1-2" data-name="Layer 1">
      <g>
        <path class="cls-1" d="M60.9,64.11c-1.18,1.32-14.35-11.88-16.08-11.23s-4.35,21.74-6.19,22-5-21.38-6.77-21.9S19.73,65.46,18.18,64.48,21.86,47.62,21,46,.41,43.52,0,41.66,17.88,35,18,33.11,5.76,20.9,6.47,19.29s17.35,5.28,18.47,3.87S22.75,4,24.46,3.45,36.41,15.39,38.23,15.33,45.53-.36,47.4,0s.93,16.58,2.37,17.66,15.68-4.06,16.73-2.59-8.16,15.8-7.61,17.49,17.46,3.32,17.22,5.08-21.12,2.5-22,4.2,8,20.94,6.78,22.26Z"/>
        <path class="cls-2" d="M63,33.83C63,45.54,51.65,55,37.7,55s-25.26-9.49-25.26-21.2,11.31-21.2,25.26-21.2S63,22.12,63,33.83Z"/>
        <path class="cls-3" d="M61.38,28.28A20.76,20.76,0,0,0,43,38.93a8.77,8.77,0,0,0-4.44-1.27c-4.82,0-8.83,4-10.07,9.52a19,19,0,0,0-7.2-1.4C13.41,45.78,7,50.27,7,55.81c0,5,5.24,9.1,12.05,9.86a3.46,3.46,0,0,0-.54,1.64c0,5.3,13.95,9.63,31.13,9.63s31.13-4.33,31.13-9.63a3.37,3.37,0,0,0-.33-1,8.81,8.81,0,0,0,2.32.4c4.6,0,8.34-3.25,8.34-7.25s-3.74-7.26-8.34-7.26a9.06,9.06,0,0,0-1.57.29,17.8,17.8,0,0,0,.77-5c0-10.6-9.21-19.22-20.6-19.22Z"/>
        <path class="cls-4" d="M87.81,41.45a11.89,11.89,0,0,0-10.4,5.68,5.26,5.26,0,0,0-2.53-.68c-2.72,0-5,2.15-5.7,5.06a11.39,11.39,0,0,0-4.07-.75c-4.46,0-8.09,2.39-8.09,5.34,0,2.65,3,4.84,6.83,5.24a1.8,1.8,0,0,0-.31.88c0,2.82,7.9,5.11,17.64,5.11S98.82,65,98.82,62.22a1.66,1.66,0,0,0-.2-.55,5.77,5.77,0,0,0,1.33.21c2.6,0,4.71-1.73,4.71-3.86s-2.11-3.85-4.71-3.85a5.57,5.57,0,0,0-.91.15,8.67,8.67,0,0,0,.45-2.65c0-5.63-5.23-10.22-11.68-10.22Z"/>
        <path class="cls-5" d="M33.65,93.18c-8.25,7.27,1.44,13.47,5.12,3.49l2.83-9.26-8,5.77Z"/>
        <path class="cls-5" d="M54.52,94c-8.25,7.27,1.44,13.47,5.12,3.49l2.83-9.26L54.52,94Z"/>
      </g>
    </g>
  </g>
</svg>
