<svg xmlns="http://www.w3.org/2000/svg" width="107.95" height="88.34" viewBox="0 0 107.95 88.34">
  <defs>
    <style>
      .cls-1 {
        fill: #fff;
        stroke-linecap: round;
        stroke-linejoin: round;
        stroke-width: 6.15px;
      }

      .cls-1, .cls-2 {
        stroke: #6798e9;
      }

      .cls-2 {
        fill: #6798e9;
        stroke-miterlimit: 3.2;
        stroke-width: 4px;
      }
    </style>
  </defs>
  <g id="Layer_2" data-name="Layer 2">
    <g id="Layer_1-2" data-name="Layer 1">
      <g>
        <path class="cls-1" d="M68.87,3.08c-9.76,0-18.13,5.09-22.23,12.4A11,11,0,0,0,41.25,14c-5.84,0-10.69,4.69-12.19,11.06a23.73,23.73,0,0,0-8.7-1.63c-9.54,0-17.28,5.22-17.28,11.66,0,5.81,6.34,10.59,14.59,11.47A3.85,3.85,0,0,0,17,48.47C17,54.63,33.9,59.64,54.7,59.64s37.7-5,37.7-11.17a3.77,3.77,0,0,0-.43-1.2,11.47,11.47,0,0,0,2.83.47c5.57,0,10.07-3.79,10.07-8.44s-4.5-8.42-10.07-8.42a11.28,11.28,0,0,0-1.93.33,19.61,19.61,0,0,0,.95-5.79c0-12.32-11.17-22.34-24.95-22.34Z"/>
        <path class="cls-2" d="M32.16,76.89c-8.25,7.27,1.44,13.47,5.12,3.48l2.83-9.26-8,5.78Z"/>
        <path class="cls-2" d="M53,77.66c-8.25,7.27,1.44,13.47,5.12,3.48L61,71.88,53,77.66Z"/>
      </g>
    </g>
  </g>
</svg>
