<svg xmlns="http://www.w3.org/2000/svg" width="107.97" height="89.31" viewBox="0 0 107.97 89.31">
  <defs>
    <style>
      .cls-1 {
        fill: none;
        stroke: #6798e9;
        stroke-linejoin: round;
        stroke-width: 6.15px;
      }

      .cls-1, .cls-2 {
        stroke-linecap: round;
      }

      .cls-2 {
        fill: #9e9e9e;
        stroke: #a6a6a6;
        stroke-miterlimit: 10;
        stroke-width: 0.13px;
      }
    </style>
  </defs>
  <g id="Layer_2" data-name="Layer 2">
    <g id="Layer_1-2" data-name="Layer 1">
      <g>
        <path class="cls-1" d="M78.38,57.15c8.54-2,14-5.19,14-8.7A3.75,3.75,0,0,0,92,47.26a11.39,11.39,0,0,0,2.82.47c5.56,0,10.09-3.78,10.09-8.43s-4.53-8.44-10.09-8.44a10.74,10.74,0,0,0-1.91.34,19.87,19.87,0,0,0,.94-5.78c0-12.32-11.16-22.34-24.94-22.34-9.77,0-18.15,5.06-22.25,12.37A11,11,0,0,0,41.26,14c-5.83,0-10.68,4.7-12.18,11.07a23.67,23.67,0,0,0-8.72-1.63c-9.54,0-17.28,5.22-17.28,11.66,0,5.81,6.34,10.58,14.59,11.47a3.78,3.78,0,0,0-.66,1.9c0,2.86,3.64,5.48,9.63,7.46m51.62,1.27-7.85,1M26.64,55.91l4.78,1"/>
        <path class="cls-2" d="M38.12,45.59c.31-1.07,7.92,1.65,8.53.72s-5-6.77-4.09-7.45,5.44,6,6.48,5.6,0-8.4,1.06-8.43.89,8,2,8.34,4.9-6.82,5.81-6.2-4,7-3.31,7.9,8-2.63,8.34-1.59-7.37,3.32-7.32,4.43,8,2.56,7.68,3.62-7.92-1.65-8.53-.72,5,6.77,4.09,7.44-5.44-6-6.48-5.59,0,8.39-1.06,8.43-.89-8-2-8.34-4.9,6.82-5.81,6.19,4-7,3.32-7.89-8,2.63-8.35,1.59,7.38-3.32,7.33-4.43S37.81,46.65,38.12,45.59Z"/>
        <path class="cls-2" d="M47.37,72.74c.31-1.07,7.92,1.65,8.53.72s-5-6.77-4.09-7.45,5.44,6,6.48,5.6,0-8.4,1.06-8.43.89,8,2,8.34,4.9-6.82,5.81-6.2-4,7-3.31,7.9,8-2.63,8.34-1.59S64.78,75,64.83,76.06s8,2.56,7.68,3.62S64.59,78,64,79s5,6.77,4.09,7.44-5.44-6-6.48-5.59,0,8.39-1.06,8.43-.89-8-2-8.34-4.9,6.82-5.81,6.19,4-7,3.32-7.89-8,2.63-8.35,1.59,7.38-3.32,7.33-4.43S47.06,73.8,47.37,72.74Z"/>
        <path class="cls-2" d="M15.38,72.74c.31-1.07,7.92,1.65,8.53.72s-5-6.77-4.09-7.45,5.44,6,6.48,5.6,0-8.4,1.06-8.43.89,8,2,8.34,4.9-6.82,5.81-6.2-4,7-3.31,7.9,8-2.63,8.34-1.59S32.79,75,32.84,76.06s8,2.56,7.68,3.62S32.6,78,32,79s5,6.77,4.09,7.44-5.44-6-6.48-5.59,0,8.39-1.06,8.43-.89-8-2-8.34-4.9,6.82-5.81,6.19,4-7,3.32-7.89-8,2.63-8.35,1.59,7.38-3.32,7.33-4.43S15.07,73.8,15.38,72.74Z"/>
      </g>
    </g>
  </g>
</svg>
