<svg xmlns="http://www.w3.org/2000/svg" width="101.66" height="99.98" viewBox="0 0 101.66 99.98">
  <defs>
    <style>
      .cls-1 {
        fill: #f5ff12;
      }

      .cls-2 {
        fill: #fff;
        stroke: #f5ff12;
        stroke-miterlimit: 1;
        stroke-width: 7.69px;
      }
    </style>
  </defs>
  <g id="Layer_2" data-name="Layer 2">
    <g id="Layer_1-2" data-name="Layer 1">
      <path class="cls-1" d="M81.34,85.63c-1.58,1.76-19.17-15.87-21.48-15S54,99.66,51.6,100s-6.66-28.55-9.05-29.24S26.35,87.43,24.28,86.12,29.2,63.6,28,61.38.55,58.12,0,55.64s23.87-9,24.07-11.42S7.69,27.91,8.64,25.76s23.17,7.06,24.67,5.17S30.39,5.32,32.67,4.61s16,16,18.39,15.87S60.82-.48,63.3,0s1.25,22.15,3.17,23.59,20.94-5.42,22.35-3.45S77.92,41.24,78.66,43.51s23.31,4.43,23,6.77S73.44,53.63,72.28,55.9s10.63,28,9.06,29.73Z"/>
      <path class="cls-2" d="M84.08,45.18c0,15.63-15.1,28.31-33.73,28.31S16.61,60.81,16.61,45.18s15.1-28.32,33.74-28.32S84.08,29.54,84.08,45.18Z"/>
    </g>
  </g>
</svg>
