<svg xmlns="http://www.w3.org/2000/svg" width="114.95" height="78.33" viewBox="0 0 114.95 78.33">
  <defs>
    <style>
      .cls-1 {
        fill: #f5ff12;
      }

      .cls-2, .cls-3 {
        fill: #fff;
      }

      .cls-2 {
        stroke: #f5ff12;
        stroke-miterlimit: 1;
        stroke-width: 10.27px;
      }

      .cls-3 {
        stroke: #6798e9;
        stroke-linecap: round;
        stroke-linejoin: round;
        stroke-width: 6.15px;
      }
    </style>
  </defs>
  <g id="Layer_2" data-name="Layer 2">
    <g id="Layer_1-2" data-name="Layer 1">
      <path class="cls-1" d="M60.9,64.11c-1.18,1.32-14.35-11.88-16.08-11.23s-4.35,21.74-6.19,22-5-21.38-6.77-21.9S19.73,65.46,18.18,64.48,21.86,47.62,21,46,.41,43.52,0,41.66,17.88,35,18,33.11,5.76,20.9,6.47,19.29s17.35,5.28,18.47,3.87S22.75,4,24.46,3.45,36.41,15.39,38.23,15.33,45.53-.36,47.4,0s.93,16.58,2.37,17.66,15.68-4.06,16.73-2.59-8.16,15.8-7.61,17.49,17.46,3.32,17.22,5.08-21.12,2.5-22,4.2,8,20.94,6.78,22.26Z"/>
      <path class="cls-2" d="M63,33.82C63,45.53,51.64,55,37.69,55s-25.26-9.49-25.26-21.2S23.74,12.63,37.69,12.63,63,22.12,63,33.82Z"/>
      <path class="cls-3" d="M75.87,18.69c-9.76,0-18.15,5.06-22.25,12.37a11,11,0,0,0-5.37-1.47c-5.84,0-10.69,4.7-12.19,11.07A23.67,23.67,0,0,0,27.34,39c-9.54,0-17.28,5.22-17.28,11.66,0,5.81,6.35,10.58,14.59,11.47a3.77,3.77,0,0,0-.65,1.9c0,6.16,16.88,11.19,37.68,11.19s37.69-5,37.69-11.19a3.83,3.83,0,0,0-.4-1.18,11.71,11.71,0,0,0,2.81.46c5.56,0,10.09-3.78,10.09-8.43s-4.53-8.44-10.09-8.44a11.07,11.07,0,0,0-1.91.34,19.54,19.54,0,0,0,.94-5.78c0-12.32-11.16-22.34-24.94-22.34Z"/>
    </g>
  </g>
</svg>
