<svg xmlns="http://www.w3.org/2000/svg" width="125.82" height="95.33" viewBox="0 0 125.82 95.33">
  <defs>
    <style>
      .cls-1, .cls-2 {
        fill: #fff;
      }

      .cls-2, .cls-3, .cls-6 {
        stroke: #6798e9;
      }

      .cls-2, .cls-3, .cls-4, .cls-5 {
        stroke-linecap: round;
      }

      .cls-2, .cls-3, .cls-4 {
        stroke-linejoin: round;
        stroke-width: 6.15px;
      }

      .cls-3, .cls-6 {
        fill: #6798e9;
      }

      .cls-4 {
        fill: #386195;
        stroke: #386195;
      }

      .cls-5 {
        fill: #f5ff12;
        stroke: #f5ff12;
        stroke-miterlimit: 1;
        stroke-width: 0.5px;
      }

      .cls-6 {
        stroke-miterlimit: 3.2;
        stroke-width: 4px;
      }
    </style>
  </defs>
  <g id="Layer_2" data-name="Layer 2">
    <g id="Layer_1-2" data-name="Layer 1">
      <g>
        <path class="cls-1" d="M113.58,34.78c-1.29,0,.52-.48-2.79-.41a23,23,0,0,0-5.65,1.27c-2,.65-5.3,1.93-7.55,2.5-4.59,1.16-2.06.61-8.93,1.69C81.55,41,79.94,41.1,78.36,41s-5.27.39-8.79-.08c-3.16-.42-4.37-.1-5.11.4a2.76,2.76,0,0,0-1.11,2.39A2.68,2.68,0,0,0,64.67,46a16.57,16.57,0,0,0,3.63,1.72,63.19,63.19,0,0,0,19.08,2.63,63.16,63.16,0,0,0,19.07-2.63,17,17,0,0,0,3.92-1.86,2.66,2.66,0,0,0,1.19-2A4.65,4.65,0,0,1,114.44,40a2.68,2.68,0,0,0,1.69-3,2.45,2.45,0,0,0-2.55-2.15Z"/>
        <g>
          <path class="cls-2" d="M63.35,3.08A23.18,23.18,0,0,0,43,14.44a10.11,10.11,0,0,0-4.94-1.35c-5.35,0-9.79,4.3-11.17,10.13a21.62,21.62,0,0,0-8-1.5c-8.75,0-15.84,4.79-15.84,10.68,0,5.33,5.81,9.7,13.36,10.51a3.64,3.64,0,0,0-.6,1.76c0,5.64,15.47,10.23,34.53,10.23s34.54-4.59,34.54-10.23a3.43,3.43,0,0,0-.39-1.11,10.47,10.47,0,0,0,2.59.43c5.1,0,9.23-3.47,9.23-7.73s-4.13-7.71-9.23-7.71a10.39,10.39,0,0,0-1.77.3,18,18,0,0,0,.87-5.3C86.21,12.26,76,3.08,63.35,3.08Z"/>
          <path class="cls-3" d="M92.5,4.71A21,21,0,0,0,73.82,16.09a8.7,8.7,0,0,0-4.54-1.35c-4.9,0-9,4.31-10.23,10.15a18.49,18.49,0,0,0-7.31-1.5c-8,0-14.53,4.8-14.53,10.71,0,5.33,5.33,9.72,12.26,10.53a3.74,3.74,0,0,0-.55,1.75c0,5.66,14.19,10.26,31.67,10.26s31.67-4.6,31.67-10.26a3.8,3.8,0,0,0-.35-1.1,8.87,8.87,0,0,0,2.38.43c4.67,0,8.46-3.48,8.46-7.75s-3.79-7.73-8.46-7.73a8.86,8.86,0,0,0-1.63.31,19.56,19.56,0,0,0,.8-5.32,20.74,20.74,0,0,0-21-20.51Z"/>
          <path class="cls-4" d="M59.25,39.61a11.9,11.9,0,0,0-10.4,5.67,5.36,5.36,0,0,0-2.53-.67c-2.73,0-5,2.15-5.7,5.06a11.39,11.39,0,0,0-4.07-.75c-4.46,0-8.09,2.39-8.09,5.33,0,2.66,3,4.85,6.83,5.25a1.77,1.77,0,0,0-.31.88c0,2.81,7.9,5.1,17.64,5.1s17.64-2.29,17.64-5.1a1.66,1.66,0,0,0-.2-.55,5.77,5.77,0,0,0,1.32.21c2.61,0,4.72-1.73,4.72-3.86S74,52.33,71.38,52.33a5.45,5.45,0,0,0-.9.15,9,9,0,0,0,.45-2.65c0-5.63-5.23-10.22-11.68-10.22Z"/>
        </g>
        <path class="cls-5" d="M67.26,18.51l-20,12.71L67,35.59,48.72,49.23l-7.39-2.3,5.24,13.15,20.82-5.74-8.79-2.4L82.47,32.35,60.65,28.79,81.72,15.55l-12-2L82.79,5.15,78,5,57.67,16.57l9.59,1.94Z"/>
        <path class="cls-6" d="M29.59,83.44c-8.25,7.27,1.44,13.47,5.12,3.49l2.83-9.26-7.95,5.77Z"/>
        <path class="cls-6" d="M58.64,84.64c-8.25,7.27,1.44,13.47,5.12,3.49l2.83-9.26-8,5.77Z"/>
        <path class="cls-6" d="M51.87,69.29c-8.25,7.27,1.44,13.47,5.12,3.49l2.83-9.26-8,5.77Z"/>
        <path class="cls-6" d="M29.59,83.44c-8.25,7.27,1.44,13.47,5.12,3.49l2.83-9.26-7.95,5.77Z"/>
        <path class="cls-6" d="M58.64,84.64c-8.25,7.27,1.44,13.47,5.12,3.49l2.83-9.26-8,5.77Z"/>
        <path class="cls-6" d="M51.87,69.29c-8.25,7.27,1.44,13.47,5.12,3.49l2.83-9.26-8,5.77Z"/>
      </g>
    </g>
  </g>
</svg>
