<svg xmlns="http://www.w3.org/2000/svg" width="107.95" height="87.71" viewBox="0 0 107.95 87.71">
  <defs>
    <style>
      .cls-1 {
        fill: none;
        stroke-linecap: round;
        stroke-linejoin: round;
        stroke-width: 6.15px;
      }

      .cls-1, .cls-2 {
        stroke: #6798e9;
      }

      .cls-2 {
        fill: #6798e9;
        stroke-miterlimit: 3.2;
        stroke-width: 4px;
      }
    </style>
  </defs>
  <g id="Layer_2" data-name="Layer 2">
    <g id="Layer_1-2" data-name="Layer 1">
      <g>
        <path class="cls-1" d="M65.73,59.16C81.16,57.76,92.4,53.5,92.4,48.47a3.77,3.77,0,0,0-.43-1.2,11.47,11.47,0,0,0,2.83.47c5.57,0,10.07-3.79,10.07-8.44s-4.5-8.42-10.07-8.42a11.28,11.28,0,0,0-1.93.33,19.62,19.62,0,0,0,1-5.79c0-12.32-11.18-22.34-25-22.34h0c-9.76,0-18.13,5.09-22.23,12.4A11,11,0,0,0,41.25,14c-5.84,0-10.69,4.69-12.19,11.06a23.73,23.73,0,0,0-8.7-1.63c-9.54,0-17.28,5.22-17.28,11.66,0,5.81,6.34,10.59,14.59,11.47A3.85,3.85,0,0,0,17,48.47c0,4.25,8,7.94,19.79,9.83"/>
        <path class="cls-2" d="M25.56,75.83C17.31,83.1,27,89.3,30.68,79.31l2.84-9.26-8,5.78Z"/>
        <path class="cls-2" d="M54.6,77C46.35,84.3,56,90.5,59.72,80.51l2.84-9.26L54.6,77Z"/>
        <path class="cls-2" d="M47.84,61.69C39.59,69,49.28,75.16,53,65.17l2.84-9.26-8,5.78Z"/>
        <path class="cls-1" d="M65.73,59.16C81.16,57.76,92.4,53.5,92.4,48.47a3.77,3.77,0,0,0-.43-1.2,11.47,11.47,0,0,0,2.83.47c5.57,0,10.07-3.79,10.07-8.44s-4.5-8.42-10.07-8.42a11.28,11.28,0,0,0-1.93.33,19.62,19.62,0,0,0,1-5.79c0-12.32-11.18-22.34-25-22.34h0c-9.76,0-18.13,5.09-22.23,12.4A11,11,0,0,0,41.25,14c-5.84,0-10.69,4.69-12.19,11.06a23.73,23.73,0,0,0-8.7-1.63c-9.54,0-17.28,5.22-17.28,11.66,0,5.81,6.34,10.59,14.59,11.47A3.85,3.85,0,0,0,17,48.47c0,4.25,8,7.94,19.79,9.83"/>
        <path class="cls-2" d="M25.56,75.83C17.31,83.1,27,89.3,30.68,79.31l2.84-9.26-8,5.78Z"/>
        <path class="cls-2" d="M54.6,77C46.35,84.3,56,90.5,59.72,80.51l2.84-9.26L54.6,77Z"/>
        <path class="cls-2" d="M47.84,61.69C39.59,69,49.28,75.16,53,65.17l2.84-9.26-8,5.78Z"/>
      </g>
    </g>
  </g>
</svg>
