<svg xmlns="http://www.w3.org/2000/svg" width="116.6" height="90.19" viewBox="0 0 116.6 90.19">
  <defs>
    <style>
      .cls-1 {
        fill: #f5ff12;
      }

      .cls-2, .cls-3 {
        fill: #fff;
      }

      .cls-2 {
        stroke: #f5ff12;
        stroke-miterlimit: 1;
        stroke-width: 8.53px;
      }

      .cls-3 {
        stroke: #6798e9;
        stroke-linecap: round;
        stroke-linejoin: round;
        stroke-width: 6.15px;
      }
    </style>
  </defs>
  <g id="Layer_2" data-name="Layer 2">
    <g id="Layer_1-2" data-name="Layer 1">
      <g>
        <path class="cls-1" d="M73.38,77.24C72,78.83,56.09,62.93,54,63.72S48.75,89.9,46.55,90.19s-6-25.75-8.16-26.38S23.77,78.87,21.9,77.69s4.44-20.31,3.4-22.32S.5,52.43,0,50.2s21.54-8.1,21.72-10.31S6.94,25.18,7.8,23.24,28.7,29.6,30.05,27.9,27.41,4.8,29.47,4.16s14.4,14.38,16.59,14.31S54.86-.43,57.1,0,58.23,20,60,21.29s18.9-4.89,20.17-3.12S70.29,37.2,71,39.25s21,4,20.75,6.11-25.46,3-26.51,5.06,9.6,25.23,8.18,26.82Z"/>
        <path class="cls-2" d="M75.85,40.75c0,14.11-13.63,25.55-30.44,25.55S15,54.86,15,40.75,28.6,15.21,45.41,15.21,75.85,26.65,75.85,40.75Z"/>
        <path class="cls-3" d="M92.15,32.38A15,15,0,0,0,79,39.74a6.56,6.56,0,0,0-3.2-.87c-3.46,0-6.34,2.78-7.23,6.57a13.91,13.91,0,0,0-5.16-1c-5.67,0-10.27,3.11-10.27,6.93,0,3.44,3.77,6.28,8.66,6.81a2.36,2.36,0,0,0-.39,1.13c0,3.66,10,6.63,22.38,6.63s22.37-3,22.37-6.63a2.16,2.16,0,0,0-.25-.71,7.11,7.11,0,0,0,1.68.27c3.3,0,6-2.24,6-5s-2.68-5-6-5a7.14,7.14,0,0,0-1.14.19,11.84,11.84,0,0,0,.56-3.43c0-7.32-6.63-13.27-14.81-13.27Z"/>
      </g>
    </g>
  </g>
</svg>
