<svg xmlns="http://www.w3.org/2000/svg" width="125.82" height="68.56" viewBox="0 0 125.82 68.56">
  <defs>
    <style>
      .cls-1, .cls-2 {
        fill: #fff;
      }

      .cls-2, .cls-3 {
        stroke: #6798e9;
      }

      .cls-2, .cls-3, .cls-4 {
        stroke-linecap: round;
        stroke-linejoin: round;
        stroke-width: 6.15px;
      }

      .cls-3 {
        fill: #6798e9;
      }

      .cls-4 {
        fill: #386195;
        stroke: #386195;
      }
    </style>
  </defs>
  <g id="Layer_2" data-name="Layer 2">
    <g id="Layer_1-2" data-name="Layer 1">
      <g>
        <path class="cls-1" d="M113.57,34.79c-1.29,0,.52-.48-2.78-.41a22.09,22.09,0,0,0-5.66,1.27c-1.95.64-5.3,1.92-7.54,2.49-4.6,1.16-2.07.61-8.94,1.7C81.54,41,79.94,41.11,78.35,41s-5.27.4-8.79-.07c-3.16-.43-4.37-.11-5.1.39a2.77,2.77,0,0,0-1.12,2.39A2.67,2.67,0,0,0,64.66,46a16.24,16.24,0,0,0,3.64,1.72,63,63,0,0,0,19.07,2.64,63.08,63.08,0,0,0,19.07-2.64,17.06,17.06,0,0,0,3.92-1.85,2.67,2.67,0,0,0,1.19-2A4.69,4.69,0,0,1,114.43,40a2.67,2.67,0,0,0,1.69-3,2.44,2.44,0,0,0-2.55-2.14Z"/>
        <path class="cls-2" d="M63.35,3.08A23.18,23.18,0,0,0,43,14.44a10.11,10.11,0,0,0-4.94-1.35c-5.35,0-9.79,4.3-11.17,10.13a21.62,21.62,0,0,0-8-1.5c-8.75,0-15.84,4.79-15.84,10.68,0,5.33,5.81,9.7,13.36,10.51a3.64,3.64,0,0,0-.6,1.76c0,5.64,15.47,10.23,34.53,10.23s34.54-4.59,34.54-10.23a3.43,3.43,0,0,0-.39-1.11,10.55,10.55,0,0,0,2.59.43c5.1,0,9.23-3.47,9.23-7.73s-4.13-7.71-9.23-7.71a10.39,10.39,0,0,0-1.77.3,18,18,0,0,0,.88-5.3C86.22,12.26,76,3.08,63.35,3.08Z"/>
        <path class="cls-3" d="M92.49,4.71A21,21,0,0,0,73.81,16.1a8.67,8.67,0,0,0-4.53-1.36c-4.9,0-9,4.31-10.24,10.16a18.41,18.41,0,0,0-7.31-1.5c-8,0-14.52,4.79-14.52,10.7,0,5.34,5.33,9.72,12.26,10.53a3.82,3.82,0,0,0-.56,1.76c0,5.66,14.2,10.26,31.68,10.26s31.67-4.6,31.67-10.26a3.8,3.8,0,0,0-.35-1.1,9.19,9.19,0,0,0,2.37.42c4.68,0,8.47-3.47,8.47-7.75s-3.79-7.72-8.47-7.72a8.74,8.74,0,0,0-1.62.3,19.49,19.49,0,0,0,.8-5.31,20.76,20.76,0,0,0-21-20.52Z"/>
        <path class="cls-4" d="M59.24,39.61a11.89,11.89,0,0,0-10.4,5.68,5.25,5.25,0,0,0-2.52-.68c-2.73,0-5,2.15-5.71,5.06a11.34,11.34,0,0,0-4.07-.75c-4.46,0-8.09,2.39-8.09,5.33,0,2.66,3,4.85,6.83,5.25a1.8,1.8,0,0,0-.31.88c0,2.81,7.91,5.11,17.64,5.11s17.64-2.3,17.64-5.11a1.64,1.64,0,0,0-.19-.55,5.6,5.6,0,0,0,1.32.21c2.6,0,4.71-1.73,4.71-3.86S74,52.33,71.38,52.33a5.28,5.28,0,0,0-.9.15,9,9,0,0,0,.44-2.65c0-5.63-5.23-10.22-11.68-10.22Z"/>
      </g>
    </g>
  </g>
</svg>
